<svg width="32" height="32" viewBox="0 0 32 32" fill="none" xmlns="http://www.w3.org/2000/svg">
<path fill-rule="evenodd" clip-rule="evenodd" d="M18.3828 5.07352C17.7763 2.57551 14.2237 2.57551 13.6172 5.07352C13.2255 6.6872 11.3767 7.45299 9.95866 6.58895C7.76349 5.25141 5.2514 7.7635 6.58894 9.95867C7.45298 11.3767 6.68719 13.2255 5.07351 13.6173C2.5755 14.2237 2.5755 17.7763 5.07351 18.3828C6.68719 18.7745 7.45298 20.6233 6.58894 22.0413C5.2514 24.2365 7.76349 26.7486 9.95866 25.4111C11.3767 24.547 13.2255 25.3128 13.6172 26.9265C14.2237 29.4245 17.7763 29.4245 18.3828 26.9265C18.7745 25.3128 20.6233 24.547 22.0413 25.4111C24.2365 26.7486 26.7486 24.2365 25.4111 22.0413C24.547 20.6233 25.3128 18.7745 26.9265 18.3828C29.4245 17.7763 29.4245 14.2237 26.9265 13.6173C25.3128 13.2255 24.547 11.3767 25.4111 9.95867C26.7486 7.7635 24.2365 5.25141 22.0413 6.58895C20.6233 7.45299 18.7745 6.6872 18.3828 5.07352ZM16 20.8C18.651 20.8 20.8 18.651 20.8 16C20.8 13.349 18.651 11.2 16 11.2C13.349 11.2 11.2 13.349 11.2 16C11.2 18.651 13.349 20.8 16 20.8Z" fill="#CBCFD5"/>
</svg>
