<svg width="40" height="41" viewBox="0 0 40 41" fill="none" xmlns="http://www.w3.org/2000/svg">
<rect y="0.719604" width="40" height="40" rx="20" fill="#4F46E5"/>
<path fill-rule="evenodd" clip-rule="evenodd" d="M13.7 16.2196C13.7 15.7226 14.1029 15.3196 14.6 15.3196H25.4C25.8971 15.3196 26.3 15.7226 26.3 16.2196C26.3 16.7167 25.8971 17.1196 25.4 17.1196H14.6C14.1029 17.1196 13.7 16.7167 13.7 16.2196Z" fill="white"/>
<path fill-rule="evenodd" clip-rule="evenodd" d="M13.7 20.7196C13.7 20.2226 14.1029 19.8196 14.6 19.8196H25.4C25.8971 19.8196 26.3 20.2226 26.3 20.7196C26.3 21.2167 25.8971 21.6196 25.4 21.6196H14.6C14.1029 21.6196 13.7 21.2167 13.7 20.7196Z" fill="white"/>
<path fill-rule="evenodd" clip-rule="evenodd" d="M13.7 25.2196C13.7 24.7226 14.1029 24.3196 14.6 24.3196H25.4C25.8971 24.3196 26.3 24.7226 26.3 25.2196C26.3 25.7167 25.8971 26.1196 25.4 26.1196H14.6C14.1029 26.1196 13.7 25.7167 13.7 25.2196Z" fill="white"/>
</svg>
