<svg width="88" height="32" viewBox="0 0 88 32" fill="none" xmlns="http://www.w3.org/2000/svg">
<path fill-rule="evenodd" clip-rule="evenodd" d="M4.79999 7.99999C4.79999 6.23268 6.23268 4.79999 7.99999 4.79999H24C25.7673 4.79999 27.2 6.23268 27.2 7.99999V24C27.2 25.7673 25.7673 27.2 24 27.2H7.99999C6.23268 27.2 4.79999 25.7673 4.79999 24V7.99999ZM24 7.99999L7.99999 7.99999V24H24V7.99999Z" fill="#64748B"/>
<path d="M6.39999 19.2H11.2L12.8 22.4H19.2L20.8 19.2H25.6V25.6H6.39999V19.2Z" fill="#64748B"/>
<path fill-rule="evenodd" clip-rule="evenodd" d="M60.8 6.39999C60.8 5.51633 61.5163 4.79999 62.4 4.79999H68.8C69.6836 4.79999 70.4 5.51633 70.4 6.39999C70.4 7.28364 69.6836 7.99999 68.8 7.99999H66.2627L69.9314 11.6686C70.5562 12.2935 70.5562 13.3065 69.9314 13.9314C69.3065 14.5562 68.2935 14.5562 67.6686 13.9314L64 10.2627V12.8C64 13.6836 63.2836 14.4 62.4 14.4C61.5163 14.4 60.8 13.6836 60.8 12.8V6.39999ZM75.2 7.99999C74.3163 7.99999 73.6 7.28364 73.6 6.39999C73.6 5.51633 74.3163 4.79999 75.2 4.79999H81.6C82.4836 4.79999 83.2 5.51633 83.2 6.39999V12.8C83.2 13.6836 82.4836 14.4 81.6 14.4C80.7163 14.4 80 13.6836 80 12.8V10.2627L76.3314 13.9314C75.7065 14.5562 74.6935 14.5562 74.0686 13.9314C73.4438 13.3065 73.4438 12.2935 74.0686 11.6686L77.7372 7.99999H75.2ZM60.8 19.2C60.8 18.3163 61.5163 17.6 62.4 17.6C63.2836 17.6 64 18.3163 64 19.2V21.7372L67.6686 18.0686C68.2935 17.4438 69.3065 17.4438 69.9314 18.0686C70.5562 18.6935 70.5562 19.7065 69.9314 20.3314L66.2627 24H68.8C69.6836 24 70.4 24.7163 70.4 25.6C70.4 26.4836 69.6836 27.2 68.8 27.2H62.4C61.5163 27.2 60.8 26.4836 60.8 25.6V19.2ZM81.6 17.6C82.4836 17.6 83.2 18.3163 83.2 19.2V25.6C83.2 26.4836 82.4836 27.2 81.6 27.2H75.2C74.3163 27.2 73.6 26.4836 73.6 25.6C73.6 24.7163 74.3163 24 75.2 24H77.7372L74.0686 20.3314C73.4438 19.7065 73.4438 18.6935 74.0686 18.0686C74.6935 17.4438 75.7065 17.4438 76.3314 18.0686L80 21.7372V19.2C80 18.3163 80.7163 17.6 81.6 17.6Z" fill="#64748B"/>
</svg>
