<svg width="24" height="25" viewBox="0 0 24 25" fill="none" xmlns="http://www.w3.org/2000/svg">
<rect y="0.439178" width="24" height="24" rx="12" fill="#D1493D"/>
<path d="M10.0966 9.16645V16.4392H8.77912V10.4484H8.73651L7.03551 11.5351V10.3277L8.84304 9.16645H10.0966ZM11.9432 16.4392V15.4875L14.468 13.0123C14.7095 12.7685 14.9107 12.5519 15.0717 12.3625C15.2327 12.1731 15.3535 11.9896 15.4339 11.812C15.5144 11.6345 15.5547 11.4451 15.5547 11.2439C15.5547 11.0142 15.5026 10.8177 15.3984 10.6544C15.2943 10.4887 15.151 10.3608 14.9688 10.2709C14.7865 10.1809 14.5793 10.1359 14.3473 10.1359C14.1082 10.1359 13.8987 10.1856 13.7188 10.2851C13.5388 10.3821 13.3991 10.5206 13.2997 10.7005C13.2027 10.8805 13.1541 11.0947 13.1541 11.3433H11.9006C11.9006 10.8816 12.0059 10.4804 12.2166 10.1395C12.4273 9.79855 12.7173 9.53459 13.0866 9.34756C13.4583 9.16053 13.8845 9.06702 14.3651 9.06702C14.8527 9.06702 15.2813 9.15816 15.6506 9.34046C16.0199 9.52275 16.3063 9.77251 16.5099 10.0897C16.7159 10.407 16.8189 10.7692 16.8189 11.1764C16.8189 11.4486 16.7668 11.7162 16.6626 11.979C16.5585 12.2417 16.375 12.5329 16.1122 12.8525C15.8518 13.1721 15.486 13.5592 15.0149 14.0138L13.7614 15.2886V15.3383H16.929V16.4392H11.9432Z" fill="white"/>
</svg>
