<svg width="152" height="100" viewBox="0 0 152 100" fill="none" xmlns="http://www.w3.org/2000/svg">
<rect x="44" width="64" height="64" rx="32" fill="#F8FAFC"/>
<g clip-path="url(#clip0_95_752)">
<path d="M76.4373 53.963C76.7534 53.8536 76.9601 53.6226 81.337 48.9418C83.6835 46.4372 85.8112 44.1515 86.0786 43.8719C86.4555 43.4828 86.565 43.2518 86.6136 42.8141C86.6744 42.3035 86.6501 42.2305 86.2489 41.8293L85.8233 41.4038L84.5954 41.4038L83.3674 41.4038L83.3674 37.9874C83.3674 35.8719 83.3188 34.4858 83.2458 34.34C83.0999 34.0725 82.4191 34.0117 82.1759 34.2548C82.0665 34.3643 82.03 35.4463 82.03 38.3764C82.03 41.9144 82.0543 42.3643 82.2245 42.5102C82.3583 42.6196 82.9054 42.7047 83.8537 42.7412L85.2762 42.802L82.5893 45.6713C81.1182 47.2518 79.027 49.4767 77.9571 50.6317L76.0118 52.7229L75.416 52.0785C75.0756 51.726 74.4799 51.0816 74.0786 50.6439C73.6653 50.2062 72.6197 49.0877 71.7565 48.1515C70.0422 46.3035 68.9479 45.1363 67.5619 43.6895L66.6744 42.7412L68.0604 42.7412C70.1759 42.7412 69.9935 43.1424 69.9935 38.4737C69.9935 36.0178 69.9449 34.498 69.872 34.3399C69.7017 34.036 69.0452 34.0238 68.8264 34.3278C68.7048 34.4858 68.6683 35.3004 68.6562 37.9752L68.6562 41.4038L67.489 41.4038C65.872 41.4038 65.3735 41.732 65.3735 42.802C65.3735 43.3004 65.2276 43.1302 71.0878 49.4159C73.2641 51.7503 75.2093 53.7442 75.4282 53.8536C75.8172 54.0482 76.109 54.0846 76.4373 53.963Z" fill="#64748B"/>
<path d="M79.1607 40.4797C79.3309 40.3217 79.3552 39.8718 79.3552 37.4402C79.3552 35.7016 79.3066 34.4858 79.2336 34.3399C79.1485 34.1819 78.9783 34.1089 78.6865 34.1089C78.3947 34.1089 78.2245 34.1819 78.1394 34.3399C78.0665 34.4858 78.0178 35.7016 78.0178 37.4402C78.0178 40.5284 78.0422 40.6743 78.6865 40.6743C78.8446 40.6743 79.0634 40.5892 79.1607 40.4797Z" fill="#64748B"/>
<path d="M73.8112 40.4797C73.9814 40.3217 74.0057 39.8718 74.0057 37.4402C74.0057 35.7016 73.9571 34.4858 73.8842 34.3399C73.7991 34.1819 73.6288 34.1089 73.337 34.1089C73.0453 34.1089 72.875 34.1819 72.7899 34.3399C72.717 34.4858 72.6684 35.7016 72.6684 37.4402C72.6684 40.5284 72.6927 40.6743 73.337 40.6743C73.4951 40.6743 73.7139 40.5892 73.8112 40.4797Z" fill="#64748B"/>
<path d="M62.0182 14.1973C61.4225 14.404 60.924 14.9511 60.7538 15.559C60.5593 16.2277 60.5714 30.7323 60.7538 31.2916C60.9362 31.8144 61.4225 32.3615 61.921 32.5682C62.2492 32.7141 64.6444 32.7384 75.9878 32.7384C85.3739 32.7384 89.7751 32.7019 90.0061 32.6046C90.4924 32.4223 90.8936 32.0211 91.1489 31.4618C91.3556 30.9998 91.3799 30.5135 91.3799 23.4983C91.3799 18.4405 91.3313 15.863 91.2462 15.5347C91.076 14.9268 90.4681 14.3189 89.8602 14.1487C89.5197 14.0514 85.3374 14.015 75.9392 14.015C64.6809 14.0271 62.4316 14.0514 62.0182 14.1973ZM71.1368 16.0089L70.4073 16.6654L68.3647 16.7141C66.5046 16.7505 66.2979 16.7749 66.1398 16.9815C66.0426 17.1153 65.9696 17.3828 65.9696 17.5651C65.9696 18.2581 65.228 19.17 64.5593 19.3037C63.1976 19.5834 63.2948 19.2673 63.2948 23.3524C63.2948 27.1943 63.3313 27.3888 64 27.3888C64.5106 27.401 65.3009 27.8022 65.5927 28.2156C65.7386 28.4223 65.8967 28.8357 65.9574 29.1396C66.1277 30.0758 66.1033 30.0636 68.3891 30.0636L70.4073 30.0758L71.1125 30.7323L71.8176 31.401H67.1246C62.6018 31.401 62.4316 31.3888 62.2006 31.1578C61.9574 30.9147 61.9574 30.7566 61.9574 23.4375V15.9481L62.2614 15.6563L62.5532 15.3524H67.2097H71.8663L71.1368 16.0089ZM77.7994 15.7414C79.7568 16.3736 81.459 18.2217 82.2128 20.5317C82.541 21.5408 82.5653 21.7475 82.5653 23.4375C82.5532 25.091 82.5289 25.3584 82.2249 26.2338C81.7751 27.5712 81.1307 28.6411 80.1945 29.5773C78.9179 30.8539 77.2766 31.4983 75.6353 31.3645C72.7295 31.1335 70.4559 28.9451 69.6049 25.5651C69.228 24.0575 69.3131 21.9299 69.8237 20.4344C71.1246 16.629 74.4924 14.6472 77.7994 15.7414ZM89.7386 15.6563L90.0425 15.9481V23.4375C90.0425 30.7566 90.0425 30.9147 89.7994 31.1578C89.5684 31.3888 89.3982 31.401 84.8754 31.401H80.1824L80.8875 30.7323L81.5927 30.0758L83.6109 30.0636C85.8967 30.0636 85.8723 30.0758 86.0425 29.1396C86.1033 28.8357 86.2614 28.4223 86.4073 28.2156C86.6991 27.8022 87.4894 27.401 88 27.3888C88.6687 27.3888 88.7052 27.1943 88.7052 23.3524C88.7052 19.5712 88.7052 19.5591 88.0243 19.4253C87.8663 19.3888 87.5988 19.3402 87.4407 19.3037C86.772 19.17 86.0304 18.2581 86.0304 17.5651C86.0304 17.3828 85.9574 17.1153 85.8602 16.9815C85.7021 16.7749 85.4954 16.7505 83.6353 16.7141L81.5927 16.6654L80.8632 16.0089L80.1337 15.3524H84.7903H89.4468L89.7386 15.6563ZM69.3374 18.173C68.3769 20.3128 68.0365 21.6746 68.0365 23.4496C68.0365 24.9086 68.304 26.2095 68.8389 27.4496C69.0821 27.9846 69.3009 28.4952 69.3374 28.5682C69.386 28.6898 69.1429 28.7262 68.3526 28.7262H67.3191L67.0517 28.1183C66.7356 27.3767 65.7994 26.4891 65.1307 26.2825L64.6322 26.1366L64.6565 23.401L64.693 20.6654L65.1915 20.4952C66.1033 20.1913 66.845 19.3645 67.2219 18.2338C67.2827 18.0636 67.4529 18.0271 68.3526 18.0271C69.1429 18.0271 69.386 18.0636 69.3374 18.173ZM84.8997 18.5864C85.2036 19.4861 86.1277 20.325 87.1611 20.629C87.3435 20.6898 87.3678 20.9329 87.3678 23.4132V26.1366L86.8693 26.2825C86.2006 26.4891 85.2644 27.3767 84.9483 28.1183L84.6808 28.7262H83.6596C83.0881 28.7262 82.6261 28.7019 82.6261 28.6654C82.6261 28.629 82.7356 28.3858 82.8693 28.1183C83.5866 26.6958 83.9635 25.1396 83.9635 23.4739C83.9635 21.6746 83.6353 20.3493 82.6626 18.173C82.614 18.0515 82.8328 18.0271 83.6596 18.0514L84.7295 18.0879L84.8997 18.5864Z" fill="#64748B"/>
<path d="M75.8176 16.7748C75.5015 16.8843 75.3313 17.2004 75.3313 17.6745C75.3313 18.1001 75.3069 18.1244 74.8814 18.2095C73.2401 18.5013 72.0486 19.7171 72.0486 21.0666C72.0486 21.8448 72.3647 22.4891 73.0334 23.0606C73.544 23.4983 74.6382 23.9846 75.0881 23.9846C75.3191 23.9846 75.3313 24.0818 75.3313 25.6259C75.3313 27.4739 75.3434 27.4618 74.4194 27.0362C73.7993 26.7566 73.544 26.4527 73.3495 25.8083C73.1671 25.1639 72.9118 24.9815 72.4498 25.1517C72.1337 25.2612 72.1094 25.3098 72.1094 25.942C72.1094 26.4891 72.1823 26.7201 72.462 27.1335C72.9118 27.7779 73.6656 28.2764 74.6018 28.5317C75.3313 28.7384 75.3313 28.7384 75.3313 29.2004C75.3313 29.4922 75.4164 29.7353 75.5501 29.8569C76.0607 30.3189 76.6686 29.942 76.6686 29.1761C76.6686 28.7384 76.6808 28.7384 77.3981 28.5317C78.3343 28.2764 79.0881 27.7779 79.5379 27.1214C79.8419 26.6837 79.8905 26.5135 79.8905 25.7475C79.8905 24.9937 79.8419 24.8113 79.5501 24.3615C79.1367 23.7414 78.2978 23.1821 77.3738 22.9268L76.6686 22.7323V21.1031C76.6686 19.8873 76.7051 19.4861 76.8267 19.4861C76.8996 19.4861 77.2522 19.6198 77.5805 19.7779C78.2249 20.0697 78.5167 20.3979 78.6626 21.0058C78.7841 21.5043 78.9544 21.6745 79.3313 21.6745C79.7811 21.6745 79.9513 21.4679 79.9513 20.9207C79.9513 19.7171 78.6747 18.4891 77.1306 18.2095C76.693 18.1244 76.6686 18.1001 76.6686 17.6502C76.6686 17.3341 76.5835 17.091 76.4255 16.9329C76.1702 16.6776 76.1215 16.6654 75.8176 16.7748ZM75.3313 21.0666C75.3313 22.246 75.2948 22.6472 75.1854 22.6472C74.8693 22.6472 73.775 22.0514 73.5805 21.784C73.082 21.0666 73.4711 20.1913 74.5045 19.7293C75.3556 19.3402 75.3313 19.3159 75.3313 21.0666ZM78.1398 24.8356C78.5167 25.1882 78.6139 25.3706 78.6139 25.711C78.6139 26.2581 78.237 26.7445 77.5927 27.0362C76.6565 27.4618 76.6686 27.4739 76.6686 25.6989V24.1305L77.1671 24.2642C77.4589 24.3372 77.8723 24.5803 78.1398 24.8356Z" fill="#64748B"/>
</g>
<path d="M11.933 89V78.8182H15.7512C16.5334 78.8182 17.1896 78.9541 17.7199 79.2259C18.2535 79.4976 18.6562 79.8788 18.928 80.3693C19.2031 80.8565 19.3406 81.425 19.3406 82.0746C19.3406 82.7275 19.2014 83.2943 18.923 83.7749C18.6479 84.2521 18.2419 84.6217 17.705 84.8835C17.1681 85.142 16.5085 85.2713 15.7263 85.2713H13.0068V83.7401H15.4777C15.9351 83.7401 16.3096 83.6771 16.6013 83.5511C16.893 83.4219 17.1084 83.2346 17.2476 82.9893C17.3901 82.7408 17.4614 82.4358 17.4614 82.0746C17.4614 81.7133 17.3901 81.4051 17.2476 81.1499C17.1051 80.8913 16.888 80.6958 16.5963 80.5632C16.3047 80.4273 15.9285 80.3594 15.4678 80.3594H13.7774V89H11.933ZM17.1929 84.3864L19.7135 89H17.6553L15.1794 84.3864H17.1929ZM24.2302 89.1491C23.4646 89.1491 22.8034 88.9901 22.2465 88.6719C21.693 88.3504 21.2671 87.8963 20.9688 87.3097C20.6705 86.7197 20.5214 86.0253 20.5214 85.2266C20.5214 84.4411 20.6705 83.7517 20.9688 83.1584C21.2704 82.5618 21.6914 82.0978 22.2316 81.7663C22.7719 81.4316 23.4066 81.2642 24.1357 81.2642C24.6064 81.2642 25.0505 81.3404 25.4681 81.4929C25.8891 81.642 26.2603 81.8741 26.5818 82.1889C26.9066 82.5038 27.1618 82.9048 27.3474 83.392C27.533 83.8759 27.6258 84.4527 27.6258 85.1222V85.674H21.3666V84.4609H25.9007C25.8973 84.1162 25.8228 83.8097 25.6769 83.5412C25.5311 83.2694 25.3273 83.0556 25.0654 82.8999C24.8069 82.7441 24.5053 82.6662 24.1606 82.6662C23.7927 82.6662 23.4695 82.7557 23.1911 82.9347C22.9127 83.1103 22.6956 83.3423 22.5399 83.6307C22.3874 83.9157 22.3095 84.2289 22.3062 84.5703V85.6293C22.3062 86.0734 22.3874 86.4545 22.5498 86.7727C22.7122 87.0876 22.9392 87.3295 23.2309 87.4986C23.5226 87.6643 23.864 87.7472 24.2551 87.7472C24.5169 87.7472 24.7539 87.7107 24.966 87.6378C25.1781 87.5616 25.3621 87.4505 25.5178 87.3047C25.6736 87.1589 25.7913 86.9782 25.8708 86.7628L27.5512 86.9517C27.4452 87.3958 27.243 87.7836 26.9447 88.1151C26.6497 88.4432 26.2719 88.6984 25.8112 88.8807C25.3505 89.0597 24.8235 89.1491 24.2302 89.1491ZM34.2442 91.8636V87.7969H34.1697C34.0769 87.9825 33.9426 88.1797 33.767 88.3885C33.5913 88.594 33.3593 88.7696 33.0709 88.9155C32.7826 89.0613 32.4197 89.1342 31.9822 89.1342C31.3823 89.1342 30.8453 88.9801 30.3714 88.6719C29.8974 88.3636 29.5229 87.9162 29.2478 87.3295C28.9727 86.7429 28.8351 86.0303 28.8351 85.1918C28.8351 84.3433 28.9743 83.6274 29.2528 83.044C29.5345 82.4574 29.914 82.0149 30.3912 81.7166C30.8685 81.415 31.4005 81.2642 31.9871 81.2642C32.4346 81.2642 32.8025 81.3404 33.0908 81.4929C33.3792 81.642 33.6079 81.8227 33.7769 82.0348C33.9459 82.2436 34.0769 82.4408 34.1697 82.6264H34.279V81.3636H36.0489V91.8636H34.2442ZM32.4843 87.6577C32.8654 87.6577 33.1903 87.5549 33.4587 87.3494C33.7272 87.1406 33.931 86.8506 34.0702 86.4794C34.2094 86.1082 34.279 85.6757 34.279 85.1818C34.279 84.688 34.2094 84.2588 34.0702 83.8942C33.9343 83.5296 33.7322 83.2462 33.4637 83.044C33.1985 82.8419 32.8721 82.7408 32.4843 82.7408C32.0832 82.7408 31.7485 82.8452 31.48 83.054C31.2116 83.2628 31.0094 83.5511 30.8735 83.919C30.7376 84.2869 30.6697 84.7079 30.6697 85.1818C30.6697 85.6591 30.7376 86.085 30.8735 86.4595C31.0127 86.8307 31.2165 87.1241 31.485 87.3395C31.7568 87.5516 32.0899 87.6577 32.4843 87.6577ZM42.7655 85.7884V81.3636H44.5653V89H42.8202V87.6428H42.7407C42.5683 88.0703 42.2849 88.42 41.8905 88.6918C41.4994 88.9635 41.0172 89.0994 40.4438 89.0994C39.9433 89.0994 39.5009 88.9884 39.1164 88.7663C38.7352 88.541 38.4369 88.2145 38.2215 87.7869C38.0061 87.3561 37.8983 86.8357 37.8983 86.2259V81.3636H39.6981V85.9474C39.6981 86.4313 39.8306 86.8158 40.0958 87.1009C40.3609 87.3859 40.709 87.5284 41.1398 87.5284C41.405 87.5284 41.6618 87.4638 41.9104 87.3345C42.159 87.2053 42.3628 87.013 42.5219 86.7578C42.6843 86.4993 42.7655 86.1761 42.7655 85.7884ZM49.7966 89.1491C49.031 89.1491 48.3698 88.9901 47.8129 88.6719C47.2594 88.3504 46.8335 87.8963 46.5352 87.3097C46.2369 86.7197 46.0878 86.0253 46.0878 85.2266C46.0878 84.4411 46.2369 83.7517 46.5352 83.1584C46.8369 82.5618 47.2578 82.0978 47.798 81.7663C48.3383 81.4316 48.973 81.2642 49.7021 81.2642C50.1728 81.2642 50.6169 81.3404 51.0345 81.4929C51.4555 81.642 51.8267 81.8741 52.1482 82.1889C52.473 82.5038 52.7282 82.9048 52.9138 83.392C53.0994 83.8759 53.1922 84.4527 53.1922 85.1222V85.674H46.933V84.4609H51.4671C51.4637 84.1162 51.3892 83.8097 51.2433 83.5412C51.0975 83.2694 50.8937 83.0556 50.6318 82.8999C50.3733 82.7441 50.0717 82.6662 49.727 82.6662C49.3591 82.6662 49.036 82.7557 48.7575 82.9347C48.4791 83.1103 48.262 83.3423 48.1063 83.6307C47.9538 83.9157 47.8759 84.2289 47.8726 84.5703V85.6293C47.8726 86.0734 47.9538 86.4545 48.1162 86.7727C48.2786 87.0876 48.5057 87.3295 48.7973 87.4986C49.089 87.6643 49.4304 87.7472 49.8215 87.7472C50.0833 87.7472 50.3203 87.7107 50.5324 87.6378C50.7445 87.5616 50.9285 87.4505 51.0843 87.3047C51.24 87.1589 51.3577 86.9782 51.4372 86.7628L53.1176 86.9517C53.0116 87.3958 52.8094 87.7836 52.5111 88.1151C52.2161 88.4432 51.8383 88.6984 51.3776 88.8807C50.9169 89.0597 50.3899 89.1491 49.7966 89.1491ZM60.7503 83.3821L59.1096 83.5611C59.0632 83.3954 58.982 83.2396 58.866 83.0938C58.7533 82.9479 58.6009 82.8303 58.4086 82.7408C58.2164 82.6513 57.9811 82.6065 57.7027 82.6065C57.3282 82.6065 57.0133 82.6877 56.7581 82.8501C56.5062 83.0125 56.3819 83.223 56.3852 83.4815C56.3819 83.7036 56.4631 83.8842 56.6288 84.0234C56.7979 84.1626 57.0763 84.277 57.464 84.3665L58.7666 84.6449C59.4891 84.8007 60.0261 85.0476 60.3774 85.3857C60.732 85.7237 60.911 86.1662 60.9143 86.7131C60.911 87.1937 60.7702 87.6179 60.4917 87.9858C60.2166 88.3504 59.8338 88.6354 59.3433 88.8409C58.8528 89.0464 58.2893 89.1491 57.653 89.1491C56.7183 89.1491 55.9659 88.9536 55.3959 88.5625C54.8258 88.1681 54.4861 87.6196 54.3767 86.9169L56.1317 86.7479C56.2112 87.0926 56.3802 87.3527 56.6388 87.5284C56.8973 87.7041 57.2337 87.7919 57.648 87.7919C58.0756 87.7919 58.4186 87.7041 58.6771 87.5284C58.939 87.3527 59.0699 87.1357 59.0699 86.8771C59.0699 86.6584 58.9854 86.4777 58.8163 86.3352C58.6506 86.1927 58.3921 86.0833 58.0407 86.0071L56.7382 85.7337C56.0057 85.5812 55.4638 85.3243 55.1125 84.9631C54.7612 84.5985 54.5872 84.1378 54.5905 83.581C54.5872 83.1103 54.7148 82.7027 54.9733 82.358C55.2351 82.0099 55.598 81.7415 56.0621 81.5526C56.5294 81.3603 57.068 81.2642 57.6778 81.2642C58.5727 81.2642 59.277 81.4548 59.7907 81.8359C60.3078 82.2171 60.6276 82.7325 60.7503 83.3821ZM66.2116 81.3636V82.7557H61.8216V81.3636H66.2116ZM62.9055 79.5341H64.7052V86.7031C64.7052 86.9451 64.7416 87.1307 64.8145 87.2599C64.8908 87.3859 64.9902 87.4721 65.1128 87.5185C65.2355 87.5649 65.3714 87.5881 65.5205 87.5881C65.6332 87.5881 65.7359 87.5798 65.8287 87.5632C65.9249 87.5466 65.9978 87.5317 66.0475 87.5185L66.3508 88.9254C66.2546 88.9586 66.1171 88.995 65.9381 89.0348C65.7625 89.0746 65.547 89.0978 65.2918 89.1044C64.8411 89.1177 64.435 89.0497 64.0738 88.9006C63.7125 88.7481 63.4258 88.5128 63.2137 88.1946C63.0049 87.8764 62.9021 87.4787 62.9055 87.0014V79.5341ZM73.3868 89.1541C72.9029 89.1541 72.4671 89.0679 72.0793 88.8956C71.6948 88.7199 71.3899 88.4614 71.1645 88.12C70.9424 87.7786 70.8314 87.3577 70.8314 86.8572C70.8314 86.4264 70.911 86.0701 71.07 85.7884C71.2291 85.5066 71.4462 85.2812 71.7213 85.1122C71.9964 84.9432 72.3063 84.8156 72.651 84.7294C72.999 84.6399 73.3586 84.5753 73.7298 84.5355C74.1773 84.4891 74.5402 84.4477 74.8186 84.4112C75.097 84.3714 75.2992 84.3118 75.4252 84.2322C75.5544 84.1494 75.6191 84.0218 75.6191 83.8494V83.8196C75.6191 83.4451 75.508 83.1551 75.286 82.9496C75.0639 82.7441 74.7441 82.6413 74.3264 82.6413C73.8856 82.6413 73.536 82.7375 73.2774 82.9297C73.0222 83.1219 72.8499 83.349 72.7604 83.6108L71.08 83.3722C71.2126 82.9081 71.4313 82.5204 71.7362 82.2088C72.0412 81.8939 72.414 81.6586 72.8548 81.5028C73.2957 81.3438 73.7829 81.2642 74.3165 81.2642C74.6844 81.2642 75.0506 81.3073 75.4152 81.3935C75.7798 81.4796 76.1129 81.6222 76.4145 81.821C76.7161 82.0166 76.9581 82.2834 77.1404 82.6214C77.326 82.9595 77.4188 83.3821 77.4188 83.8892V89H75.6887V87.951H75.629C75.5196 88.1631 75.3655 88.362 75.1666 88.5476C74.9711 88.7299 74.7242 88.8774 74.4259 88.9901C74.1309 89.0994 73.7845 89.1541 73.3868 89.1541ZM73.8541 87.8317C74.2154 87.8317 74.5286 87.7604 74.7938 87.6179C75.0589 87.4721 75.2628 87.2798 75.4053 87.0412C75.5511 86.8026 75.624 86.5424 75.624 86.2607V85.3608C75.5677 85.4072 75.4716 85.4503 75.3357 85.4901C75.2031 85.5298 75.0539 85.5646 74.8882 85.5945C74.7225 85.6243 74.5584 85.6508 74.396 85.674C74.2336 85.6972 74.0928 85.7171 73.9735 85.7337C73.705 85.7701 73.4647 85.8298 73.2526 85.9126C73.0405 85.9955 72.8731 86.1115 72.7504 86.2607C72.6278 86.4065 72.5665 86.5954 72.5665 86.8274C72.5665 87.1589 72.6875 87.4091 72.9294 87.5781C73.1714 87.7472 73.4796 87.8317 73.8541 87.8317ZM82.7011 91.8636V81.3636H84.471V82.6264H84.5754C84.6682 82.4408 84.7991 82.2436 84.9681 82.0348C85.1372 81.8227 85.3659 81.642 85.6542 81.4929C85.9426 81.3404 86.3105 81.2642 86.7579 81.2642C87.3479 81.2642 87.8798 81.415 88.3538 81.7166C88.8311 82.0149 89.2089 82.4574 89.4873 83.044C89.769 83.6274 89.9099 84.3433 89.9099 85.1918C89.9099 86.0303 89.7723 86.7429 89.4972 87.3295C89.2222 87.9162 88.8476 88.3636 88.3737 88.6719C87.8997 88.9801 87.3628 89.1342 86.7629 89.1342C86.3254 89.1342 85.9624 89.0613 85.6741 88.9155C85.3857 88.7696 85.1537 88.594 84.9781 88.3885C84.8057 88.1797 84.6715 87.9825 84.5754 87.7969H84.5008V91.8636H82.7011ZM84.466 85.1818C84.466 85.6757 84.5356 86.1082 84.6748 86.4794C84.8173 86.8506 85.0212 87.1406 85.2863 87.3494C85.5548 87.5549 85.8796 87.6577 86.2607 87.6577C86.6585 87.6577 86.9916 87.5516 87.26 87.3395C87.5285 87.1241 87.7307 86.8307 87.8666 86.4595C88.0058 86.085 88.0754 85.6591 88.0754 85.1818C88.0754 84.7079 88.0074 84.2869 87.8715 83.919C87.7356 83.5511 87.5335 83.2628 87.265 83.054C86.9965 82.8452 86.6618 82.7408 86.2607 82.7408C85.8763 82.7408 85.5498 82.8419 85.2813 83.044C85.0129 83.2462 84.809 83.5296 84.6698 83.8942C84.5339 84.2588 84.466 84.688 84.466 85.1818ZM93.6485 89.1541C93.1646 89.1541 92.7288 89.0679 92.341 88.8956C91.9565 88.7199 91.6516 88.4614 91.4262 88.12C91.2042 87.7786 91.0931 87.3577 91.0931 86.8572C91.0931 86.4264 91.1727 86.0701 91.3318 85.7884C91.4909 85.5066 91.7079 85.2812 91.983 85.1122C92.2581 84.9432 92.568 84.8156 92.9127 84.7294C93.2607 84.6399 93.6204 84.5753 93.9916 84.5355C94.439 84.4891 94.8019 84.4477 95.0803 84.4112C95.3588 84.3714 95.5609 84.3118 95.6869 84.2322C95.8161 84.1494 95.8808 84.0218 95.8808 83.8494V83.8196C95.8808 83.4451 95.7697 83.1551 95.5477 82.9496C95.3256 82.7441 95.0058 82.6413 94.5882 82.6413C94.1473 82.6413 93.7977 82.7375 93.5392 82.9297C93.2839 83.1219 93.1116 83.349 93.0221 83.6108L91.3417 83.3722C91.4743 82.9081 91.693 82.5204 91.998 82.2088C92.3029 81.8939 92.6758 81.6586 93.1166 81.5028C93.5574 81.3438 94.0446 81.2642 94.5782 81.2642C94.9461 81.2642 95.3124 81.3073 95.6769 81.3935C96.0415 81.4796 96.3746 81.6222 96.6762 81.821C96.9778 82.0166 97.2198 82.2834 97.4021 82.6214C97.5877 82.9595 97.6805 83.3821 97.6805 83.8892V89H95.9504V87.951H95.8907C95.7813 88.1631 95.6272 88.362 95.4284 88.5476C95.2328 88.7299 94.9859 88.8774 94.6876 88.9901C94.3926 89.0994 94.0463 89.1541 93.6485 89.1541ZM94.1159 87.8317C94.4771 87.8317 94.7903 87.7604 95.0555 87.6179C95.3206 87.4721 95.5245 87.2798 95.667 87.0412C95.8128 86.8026 95.8857 86.5424 95.8857 86.2607V85.3608C95.8294 85.4072 95.7333 85.4503 95.5974 85.4901C95.4648 85.5298 95.3157 85.5646 95.1499 85.5945C94.9842 85.6243 94.8202 85.6508 94.6578 85.674C94.4954 85.6972 94.3545 85.7171 94.2352 85.7337C93.9667 85.7701 93.7264 85.8298 93.5143 85.9126C93.3022 85.9955 93.1348 86.1115 93.0122 86.2607C92.8895 86.4065 92.8282 86.5954 92.8282 86.8274C92.8282 87.1589 92.9492 87.4091 93.1911 87.5781C93.4331 87.7472 93.7413 87.8317 94.1159 87.8317ZM100.335 91.8636C100.09 91.8636 99.863 91.8438 99.6542 91.804C99.4487 91.7675 99.2847 91.7244 99.162 91.6747L99.5796 90.2727C99.8415 90.349 100.075 90.3854 100.281 90.3821C100.486 90.3788 100.667 90.3142 100.823 90.1882C100.982 90.0656 101.116 89.8601 101.225 89.5717L101.379 89.1591L98.6102 81.3636H100.519L102.279 87.1307H102.359L104.124 81.3636H106.038L102.98 89.9247C102.838 90.3291 102.649 90.6754 102.413 90.9638C102.178 91.2554 101.89 91.4775 101.548 91.63C101.21 91.7857 100.806 91.8636 100.335 91.8636ZM107.283 89V81.3636H109.003V82.6612H109.093C109.252 82.2237 109.515 81.8823 109.883 81.6371C110.251 81.3885 110.69 81.2642 111.201 81.2642C111.718 81.2642 112.154 81.3902 112.508 81.642C112.866 81.8906 113.118 82.2304 113.264 82.6612H113.343C113.513 82.237 113.798 81.8989 114.199 81.647C114.603 81.3918 115.082 81.2642 115.635 81.2642C116.338 81.2642 116.911 81.4863 117.356 81.9304C117.8 82.3745 118.022 83.0225 118.022 83.8743V89H116.217V84.1527C116.217 83.6787 116.091 83.3324 115.839 83.1136C115.587 82.8916 115.279 82.7805 114.915 82.7805C114.48 82.7805 114.141 82.9164 113.895 83.1882C113.653 83.4567 113.532 83.8063 113.532 84.2372V89H111.767V84.0781C111.767 83.6837 111.648 83.3688 111.41 83.1335C111.174 82.8982 110.866 82.7805 110.485 82.7805C110.226 82.7805 109.991 82.8468 109.779 82.9794C109.567 83.1087 109.398 83.2926 109.272 83.5312C109.146 83.7666 109.083 84.0417 109.083 84.3565V89H107.283ZM123.228 89.1491C122.463 89.1491 121.801 88.9901 121.245 88.6719C120.691 88.3504 120.265 87.8963 119.967 87.3097C119.669 86.7197 119.519 86.0253 119.519 85.2266C119.519 84.4411 119.669 83.7517 119.967 83.1584C120.268 82.5618 120.689 82.0978 121.23 81.7663C121.77 81.4316 122.405 81.2642 123.134 81.2642C123.604 81.2642 124.049 81.3404 124.466 81.4929C124.887 81.642 125.258 81.8741 125.58 82.1889C125.905 82.5038 126.16 82.9048 126.345 83.392C126.531 83.8759 126.624 84.4527 126.624 85.1222V85.674H120.365V84.4609H124.899C124.895 84.1162 124.821 83.8097 124.675 83.5412C124.529 83.2694 124.325 83.0556 124.063 82.8999C123.805 82.7441 123.503 82.6662 123.159 82.6662C122.791 82.6662 122.468 82.7557 122.189 82.9347C121.911 83.1103 121.694 83.3423 121.538 83.6307C121.385 83.9157 121.308 84.2289 121.304 84.5703V85.6293C121.304 86.0734 121.385 86.4545 121.548 86.7727C121.71 87.0876 121.937 87.3295 122.229 87.4986C122.521 87.6643 122.862 87.7472 123.253 87.7472C123.515 87.7472 123.752 87.7107 123.964 87.6378C124.176 87.5616 124.36 87.4505 124.516 87.3047C124.672 87.1589 124.789 86.9782 124.869 86.7628L126.549 86.9517C126.443 87.3958 126.241 87.7836 125.943 88.1151C125.648 88.4432 125.27 88.6984 124.809 88.8807C124.349 89.0597 123.822 89.1491 123.228 89.1491ZM129.946 84.5256V89H128.146V81.3636H129.867V82.6612H129.956C130.132 82.2337 130.412 81.8939 130.796 81.642C131.184 81.3902 131.663 81.2642 132.233 81.2642C132.76 81.2642 133.219 81.3769 133.61 81.6023C134.005 81.8277 134.31 82.1541 134.525 82.5817C134.744 83.0092 134.851 83.5279 134.848 84.1378V89H133.048V84.4162C133.048 83.9058 132.916 83.5064 132.651 83.218C132.389 82.9297 132.026 82.7855 131.562 82.7855C131.247 82.7855 130.967 82.8551 130.722 82.9943C130.48 83.1302 130.289 83.3274 130.15 83.5859C130.014 83.8445 129.946 84.1577 129.946 84.5256ZM140.491 81.3636V82.7557H136.101V81.3636H140.491ZM137.185 79.5341H138.984V86.7031C138.984 86.9451 139.021 87.1307 139.094 87.2599C139.17 87.3859 139.27 87.4721 139.392 87.5185C139.515 87.5649 139.651 87.5881 139.8 87.5881C139.912 87.5881 140.015 87.5798 140.108 87.5632C140.204 87.5466 140.277 87.5317 140.327 87.5185L140.63 88.9254C140.534 88.9586 140.396 88.995 140.217 89.0348C140.042 89.0746 139.826 89.0978 139.571 89.1044C139.12 89.1177 138.714 89.0497 138.353 88.9006C137.992 88.7481 137.705 88.5128 137.493 88.1946C137.284 87.8764 137.181 87.4787 137.185 87.0014V79.5341Z" fill="#344055"/>
<defs>
<clipPath id="clip0_95_752">
<rect width="40" height="40" fill="white" transform="translate(56 14)"/>
</clipPath>
</defs>
</svg>
